<?xml version="1.0" encoding="UTF-8" standalone="no"?>
<!DOCTYPE svg PUBLIC "-//W3C//DTD SVG 1.1//EN"
 "http://www.w3.org/Graphics/SVG/1.1/DTD/svg11.dtd">
<!-- Generated by graphviz version 2.30.1 (20130214.1330)
 -->
<!-- Title: G Pages: 1 -->
<svg width="2697pt" height="2098pt"
 viewBox="0.00 0.00 2696.98 2097.60" xmlns="http://www.w3.org/2000/svg" xmlns:xlink="http://www.w3.org/1999/xlink">
<g id="graph0" class="graph" transform="scale(1 1) rotate(0) translate(4 2093.6)">
<title>G</title>
<!-- International Solar Energy Society -->
<g id="node1" class="node"><title>International Solar Energy Society</title>
<ellipse fill="none" stroke="black" cx="2065.35" cy="-939.221" rx="133.776" ry="18"/>
<text text-anchor="middle" x="2065.35" y="-935.521" font-family="Times New Roman,serif" font-size="14.00">International Solar Energy Society</text>
</g>
<!-- International Renewable Energy Alliance -->
<g id="node2" class="node"><title>International Renewable Energy Alliance</title>
<ellipse fill="none" stroke="black" cx="2533" cy="-990.9" rx="155.972" ry="18"/>
<text text-anchor="middle" x="2533" y="-987.2" font-family="Times New Roman,serif" font-size="14.00">International Renewable Energy Alliance</text>
</g>
<!-- International Solar Energy Society&#45;&gt;International Renewable Energy Alliance -->
<g id="edge1" class="edge"><title>International Solar Energy Society&#45;&gt;International Renewable Energy Alliance</title>
<path fill="none" stroke="black" d="M2146.77,-953.529C2212.79,-962.355 2307.55,-973.17 2386.68,-981.072"/>
<polygon fill="black" stroke="black" points="2386.45,-984.566 2396.74,-982.07 2387.14,-977.601 2386.45,-984.566"/>
</g>
<!-- Renewable energy -->
<g id="node3" class="node"><title>Renewable energy</title>
<ellipse fill="none" stroke="black" cx="1370.03" cy="-737.677" rx="76.8869" ry="18"/>
<text text-anchor="middle" x="1370.03" y="-733.977" font-family="Times New Roman,serif" font-size="14.00">Renewable energy</text>
</g>
<!-- International Solar Energy Society&#45;&gt;Renewable energy -->
<g id="edge2" class="edge"><title>International Solar Energy Society&#45;&gt;Renewable energy</title>
<path fill="none" stroke="black" d="M2008.75,-922.813C1878.72,-885.123 1559.79,-792.681 1428.23,-754.548"/>
<polygon fill="black" stroke="black" points="1428.92,-751.102 1418.34,-751.68 1426.97,-757.825 1428.92,-751.102"/>
</g>
<!-- International Renewable Energy Alliance&#45;&gt;International Solar Energy Society -->
<g id="edge6" class="edge"><title>International Renewable Energy Alliance&#45;&gt;International Solar Energy Society</title>
<path fill="none" stroke="black" d="M2446.45,-975.909C2376.68,-966.679 2277.39,-955.456 2197.65,-947.662"/>
<polygon fill="black" stroke="black" points="2197.82,-944.163 2187.53,-946.682 2197.15,-951.13 2197.82,-944.163"/>
</g>
<!-- Renewable energy commercialization -->
<g id="node5" class="node"><title>Renewable energy commercialization</title>
<ellipse fill="none" stroke="black" cx="1265.4" cy="-1034.56" rx="144.075" ry="18"/>
<text text-anchor="middle" x="1265.4" y="-1030.86" font-family="Times New Roman,serif" font-size="14.00">Renewable energy commercialization</text>
</g>
<!-- Renewable energy&#45;&gt;Renewable energy commercialization -->
<g id="edge25" class="edge"><title>Renewable energy&#45;&gt;Renewable energy commercialization</title>
<path fill="none" stroke="black" d="M1308.26,-748.547C1290.72,-770.117 1250.93,-911.496 1249.26,-932.446 1248.15,-946.366 1254.36,-981.11 1259.39,-1006.19"/>
<polygon fill="black" stroke="black" points="1256.02,-1007.16 1261.45,-1016.25 1262.87,-1005.75 1256.02,-1007.16"/>
</g>
<!-- International Renewable Energy Agency -->
<g id="node4" class="node"><title>International Renewable Energy Agency</title>
<ellipse fill="none" stroke="black" cx="670.005" cy="-1023.34" rx="155.173" ry="18"/>
<text text-anchor="middle" x="670.005" y="-1019.64" font-family="Times New Roman,serif" font-size="14.00">International Renewable Energy Agency</text>
</g>
<!-- Renewable energy&#45;&gt;International Renewable Energy Agency -->
<g id="edge26" class="edge"><title>Renewable energy&#45;&gt;International Renewable Energy Agency</title>
<path fill="none" stroke="black" d="M1324.92,-752.318C1198.14,-799.377 839.76,-945.599 714.152,-1001.49"/>
<polygon fill="black" stroke="black" points="712.513,-998.391 704.817,-1005.67 715.374,-1004.78 712.513,-998.391"/>
</g>
<!-- National Renewable Energy Laboratory -->
<g id="node16" class="node"><title>National Renewable Energy Laboratory</title>
<ellipse fill="none" stroke="black" cx="1818.21" cy="-187.698" rx="153.273" ry="18"/>
<text text-anchor="middle" x="1818.21" y="-183.998" font-family="Times New Roman,serif" font-size="14.00">National Renewable Energy Laboratory</text>
</g>
<!-- Renewable energy&#45;&gt;National Renewable Energy Laboratory -->
<g id="edge27" class="edge"><title>Renewable energy&#45;&gt;National Renewable Energy Laboratory</title>
<path fill="none" stroke="black" d="M1387.8,-720.126C1459.82,-640.143 1728.51,-310.596 1800.47,-214.233"/>
<polygon fill="black" stroke="black" points="1803.5,-216.028 1806.62,-205.905 1797.87,-211.869 1803.5,-216.028"/>
</g>
<!-- International Renewable Energy Agency&#45;&gt;Renewable energy -->
<g id="edge3" class="edge"><title>International Renewable Energy Agency&#45;&gt;Renewable energy</title>
<path fill="none" stroke="black" d="M721.464,-1006.33C854.501,-956.527 1207.81,-812.263 1328.75,-758.24"/>
<polygon fill="black" stroke="black" points="1330.37,-761.349 1338.06,-754.054 1327.5,-754.965 1330.37,-761.349"/>
</g>
<!-- International Renewable Energy Agency&#45;&gt;Renewable energy commercialization -->
<g id="edge4" class="edge"><title>International Renewable Energy Agency&#45;&gt;Renewable energy commercialization</title>
<path fill="none" stroke="black" d="M807.614,-1031.73C898.893,-1034.66 1018.75,-1036.98 1112.93,-1037.66"/>
<polygon fill="black" stroke="black" points="1113.1,-1041.17 1123.12,-1037.73 1113.14,-1034.17 1113.1,-1041.17"/>
</g>
<!-- Renewable energy commercialization&#45;&gt;International Solar Energy Society -->
<g id="edge8" class="edge"><title>Renewable energy commercialization&#45;&gt;International Solar Energy Society</title>
<path fill="none" stroke="black" d="M1369.98,-1022.1C1521.45,-1004.04 1800.61,-970.773 1955.16,-952.354"/>
<polygon fill="black" stroke="black" points="1955.64,-955.821 1965.16,-951.162 1954.81,-948.87 1955.64,-955.821"/>
</g>
<!-- Renewable energy commercialization&#45;&gt;International Renewable Energy Agency -->
<g id="edge9" class="edge"><title>Renewable energy commercialization&#45;&gt;International Renewable Energy Agency</title>
<path fill="none" stroke="black" d="M1136.32,-1026.45C1047.4,-1023.5 928.545,-1021.12 833.083,-1020.32"/>
<polygon fill="black" stroke="black" points="833.066,-1016.82 823.039,-1020.24 833.011,-1023.82 833.066,-1016.82"/>
</g>
<!-- Renewable energy commercialization&#45;&gt;Renewable energy -->
<g id="edge10" class="edge"><title>Renewable energy commercialization&#45;&gt;Renewable energy</title>
<path fill="none" stroke="black" d="M1263.65,-1016.29C1262.06,-996.164 1260.48,-962.801 1264.14,-934.357 1266.55,-915.578 1293.01,-794.792 1310.48,-759.053"/>
<polygon fill="black" stroke="black" points="1313.54,-760.766 1316.01,-750.463 1307.65,-756.977 1313.54,-760.766"/>
</g>
<!-- Solar power in Pakistan -->
<g id="node6" class="node"><title>Solar power in Pakistan</title>
<ellipse fill="none" stroke="black" cx="96.8414" cy="-1214.78" rx="96.6831" ry="18"/>
<text text-anchor="middle" x="96.8414" y="-1211.08" font-family="Times New Roman,serif" font-size="14.00">Solar power in Pakistan</text>
</g>
<!-- Solar power in Pakistan&#45;&gt;International Renewable Energy Agency -->
<g id="edge5" class="edge"><title>Solar power in Pakistan&#45;&gt;International Renewable Energy Agency</title>
<path fill="none" stroke="black" d="M144.233,-1198.95C247.827,-1164.35 494.334,-1082.01 609.178,-1043.65"/>
<polygon fill="black" stroke="black" points="610.501,-1046.9 618.877,-1040.41 608.284,-1040.26 610.501,-1046.9"/>
</g>
<!-- Primary energy -->
<g id="node7" class="node"><title>Primary energy</title>
<ellipse fill="none" stroke="black" cx="1142.03" cy="-322.591" rx="65.7887" ry="18"/>
<text text-anchor="middle" x="1142.03" y="-318.891" font-family="Times New Roman,serif" font-size="14.00">Primary energy</text>
</g>
<!-- Primary energy&#45;&gt;Renewable energy -->
<g id="edge7" class="edge"><title>Primary energy&#45;&gt;Renewable energy</title>
<path fill="none" stroke="black" d="M1151.83,-340.426C1187.7,-405.738 1312.05,-632.12 1355.17,-710.621"/>
<polygon fill="black" stroke="black" points="1352.13,-712.36 1360.01,-719.44 1358.26,-708.99 1352.13,-712.36"/>
</g>
<!-- Soft energy technology -->
<g id="node8" class="node"><title>Soft energy technology</title>
<ellipse fill="none" stroke="black" cx="1442.59" cy="-1402.26" rx="94.7833" ry="18"/>
<text text-anchor="middle" x="1442.59" y="-1398.56" font-family="Times New Roman,serif" font-size="14.00">Soft energy technology</text>
</g>
<!-- Soft energy technology&#45;&gt;Renewable energy commercialization -->
<g id="edge11" class="edge"><title>Soft energy technology&#45;&gt;Renewable energy commercialization</title>
<path fill="none" stroke="black" d="M1433.92,-1384.27C1405.25,-1324.78 1313.36,-1134.07 1278.75,-1062.26"/>
<polygon fill="black" stroke="black" points="1281.76,-1060.43 1274.26,-1052.94 1275.45,-1063.47 1281.76,-1060.43"/>
</g>
<!-- Soft energy technology&#45;&gt;Renewable energy -->
<g id="edge12" class="edge"><title>Soft energy technology&#45;&gt;Renewable energy</title>
<path fill="none" stroke="black" d="M1446.13,-1384.2C1456.18,-1327.89 1479.93,-1152.21 1411.29,-1034.7 1371.36,-966.345 1282.89,-1011.26 1264.14,-934.357 1247.71,-866.999 1305.87,-797.797 1342.45,-762.179"/>
<polygon fill="black" stroke="black" points="1345.06,-764.528 1349.9,-755.101 1340.24,-759.456 1345.06,-764.528"/>
</g>
<!-- Renewable energy in Asia -->
<g id="node9" class="node"><title>Renewable energy in Asia</title>
<ellipse fill="none" stroke="black" cx="1744.76" cy="-1282.44" rx="103.982" ry="18"/>
<text text-anchor="middle" x="1744.76" y="-1278.74" font-family="Times New Roman,serif" font-size="14.00">Renewable energy in Asia</text>
</g>
<!-- Renewable energy in Asia&#45;&gt;Renewable energy -->
<g id="edge13" class="edge"><title>Renewable energy in Asia&#45;&gt;Renewable energy</title>
<path fill="none" stroke="black" d="M1721.55,-1264.69C1667.61,-1223.55 1529.38,-1118.78 1411.29,-1034.7 1346.8,-988.787 1282.89,-1011.26 1264.14,-934.357 1247.71,-866.999 1305.87,-797.797 1342.45,-762.179"/>
<polygon fill="black" stroke="black" points="1345.06,-764.528 1349.9,-755.101 1340.24,-759.456 1345.06,-764.528"/>
</g>
<!-- Renewable energy in Asia&#45;&gt;Renewable energy commercialization -->
<g id="edge14" class="edge"><title>Renewable energy in Asia&#45;&gt;Renewable energy commercialization</title>
<path fill="none" stroke="black" d="M1711.44,-1265.21C1626.68,-1221.38 1402.93,-1105.68 1308.47,-1056.83"/>
<polygon fill="black" stroke="black" points="1309.96,-1053.66 1299.47,-1052.18 1306.74,-1059.88 1309.96,-1053.66"/>
</g>
<!-- Renewable energy in Australia -->
<g id="node10" class="node"><title>Renewable energy in Australia</title>
<ellipse fill="none" stroke="black" cx="988.731" cy="-1141.5" rx="119.679" ry="18"/>
<text text-anchor="middle" x="988.731" y="-1137.8" font-family="Times New Roman,serif" font-size="14.00">Renewable energy in Australia</text>
</g>
<!-- Renewable energy in Australia&#45;&gt;Renewable energy commercialization -->
<g id="edge15" class="edge"><title>Renewable energy in Australia&#45;&gt;Renewable energy commercialization</title>
<path fill="none" stroke="black" d="M1032.27,-1124.67C1080.69,-1105.96 1158.97,-1075.7 1211.29,-1055.48"/>
<polygon fill="black" stroke="black" points="1212.68,-1058.69 1220.75,-1051.82 1210.16,-1052.16 1212.68,-1058.69"/>
</g>
<!-- Renewable energy in Australia&#45;&gt;Renewable energy -->
<g id="edge16" class="edge"><title>Renewable energy in Australia&#45;&gt;Renewable energy</title>
<path fill="none" stroke="black" d="M1005.61,-1123.63C1066.51,-1059.12 1275.15,-838.163 1346.15,-762.968"/>
<polygon fill="black" stroke="black" points="1349.03,-765.017 1353.35,-755.343 1343.94,-760.211 1349.03,-765.017"/>
</g>
<!-- Renewable Energy Certificates (United States) -->
<g id="node11" class="node"><title>Renewable Energy Certificates (United States)</title>
<ellipse fill="none" stroke="black" cx="1087.58" cy="-1485.83" rx="178.168" ry="18"/>
<text text-anchor="middle" x="1087.58" y="-1482.13" font-family="Times New Roman,serif" font-size="14.00">Renewable Energy Certificates (United States)</text>
</g>
<!-- Renewable energy in Australia&#45;&gt;Renewable Energy Certificates (United States) -->
<g id="edge17" class="edge"><title>Renewable energy in Australia&#45;&gt;Renewable Energy Certificates (United States)</title>
<path fill="none" stroke="black" d="M993.906,-1159.53C1010.12,-1215.99 1059.99,-1389.71 1079.57,-1457.92"/>
<polygon fill="black" stroke="black" points="1076.21,-1458.92 1082.34,-1467.56 1082.94,-1456.99 1076.21,-1458.92"/>
</g>
<!-- Mandatory renewable energy target -->
<g id="node12" class="node"><title>Mandatory renewable energy target</title>
<ellipse fill="none" stroke="black" cx="1016.14" cy="-740.504" rx="137.576" ry="18"/>
<text text-anchor="middle" x="1016.14" y="-736.804" font-family="Times New Roman,serif" font-size="14.00">Mandatory renewable energy target</text>
</g>
<!-- Renewable energy in Australia&#45;&gt;Mandatory renewable energy target -->
<g id="edge18" class="edge"><title>Renewable energy in Australia&#45;&gt;Mandatory renewable energy target</title>
<path fill="none" stroke="black" d="M989.962,-1123.49C994.3,-1060.03 1008.9,-846.462 1014.2,-768.93"/>
<polygon fill="black" stroke="black" points="1017.69,-769.138 1014.88,-758.923 1010.71,-768.661 1017.69,-769.138"/>
</g>
<!-- Renewable Energy Certificates (United States)&#45;&gt;Renewable energy -->
<g id="edge22" class="edge"><title>Renewable Energy Certificates (United States)&#45;&gt;Renewable energy</title>
<path fill="none" stroke="black" d="M1088.71,-1467.75C1093.89,-1384.84 1115.37,-1044.65 1119.52,-1034.42 1168.15,-914.705 1284.38,-807.916 1339.73,-761.801"/>
<polygon fill="black" stroke="black" points="1342.26,-764.247 1347.75,-755.185 1337.81,-758.845 1342.26,-764.247"/>
</g>
<!-- Renewable Energy Certificates (United States)&#45;&gt;Renewable energy commercialization -->
<g id="edge23" class="edge"><title>Renewable Energy Certificates (United States)&#45;&gt;Renewable energy commercialization</title>
<path fill="none" stroke="black" d="M1094.77,-1467.58C1122.37,-1397.54 1221.6,-1145.72 1254.63,-1061.91"/>
<polygon fill="black" stroke="black" points="1257.91,-1063.13 1258.32,-1052.54 1251.4,-1060.56 1257.91,-1063.13"/>
</g>
<!-- Solar Renewable Energy Certificates -->
<g id="node13" class="node"><title>Solar Renewable Energy Certificates</title>
<ellipse fill="none" stroke="black" cx="934.522" cy="-2071.6" rx="142.975" ry="18"/>
<text text-anchor="middle" x="934.522" y="-2067.9" font-family="Times New Roman,serif" font-size="14.00">Solar Renewable Energy Certificates</text>
</g>
<!-- Renewable Energy Certificates (United States)&#45;&gt;Solar Renewable Energy Certificates -->
<g id="edge24" class="edge"><title>Renewable Energy Certificates (United States)&#45;&gt;Solar Renewable Energy Certificates</title>
<path fill="none" stroke="black" d="M1080.16,-1504C1052.59,-1588.22 960.31,-1940.74 938.714,-2043.43"/>
<polygon fill="black" stroke="black" points="935.255,-2042.87 936.692,-2053.37 942.115,-2044.26 935.255,-2042.87"/>
</g>
<!-- Mandatory renewable energy target&#45;&gt;Renewable energy -->
<g id="edge28" class="edge"><title>Mandatory renewable energy target&#45;&gt;Renewable energy</title>
<path fill="none" stroke="black" d="M1153.72,-739.405C1197.22,-739.058 1244.05,-738.683 1282.98,-738.372"/>
<polygon fill="black" stroke="black" points="1283.25,-741.87 1293.22,-738.291 1283.19,-734.871 1283.25,-741.87"/>
</g>
<!-- Solar Renewable Energy Certificates&#45;&gt;Renewable Energy Certificates (United States) -->
<g id="edge19" class="edge"><title>Solar Renewable Energy Certificates&#45;&gt;Renewable Energy Certificates (United States)</title>
<path fill="none" stroke="black" d="M941.946,-2053.43C969.517,-1969.21 1061.79,-1616.69 1083.39,-1514"/>
<polygon fill="black" stroke="black" points="1086.85,-1514.56 1085.41,-1504.06 1079.99,-1513.16 1086.85,-1514.56"/>
</g>
<!-- German Renewable Energy Act -->
<g id="node14" class="node"><title>German Renewable Energy Act</title>
<ellipse fill="none" stroke="black" cx="933.811" cy="-102.423" rx="124.578" ry="18"/>
<text text-anchor="middle" x="933.811" y="-98.7234" font-family="Times New Roman,serif" font-size="14.00">German Renewable Energy Act</text>
</g>
<!-- German Renewable Energy Act&#45;&gt;Renewable energy -->
<g id="edge20" class="edge"><title>German Renewable Energy Act&#45;&gt;Renewable energy</title>
<path fill="none" stroke="black" d="M945.031,-120.589C968.533,-158.493 1024.89,-248.621 1074.79,-322.518 1175.68,-471.933 1303.1,-646.632 1350.82,-711.61"/>
<polygon fill="black" stroke="black" points="1348.02,-713.703 1356.76,-719.687 1353.66,-709.557 1348.02,-713.703"/>
</g>
<!-- Outline of energy -->
<g id="node15" class="node"><title>Outline of energy</title>
<ellipse fill="none" stroke="black" cx="696.54" cy="-420.883" rx="73.387" ry="18"/>
<text text-anchor="middle" x="696.54" y="-417.183" font-family="Times New Roman,serif" font-size="14.00">Outline of energy</text>
</g>
<!-- German Renewable Energy Act&#45;&gt;Outline of energy -->
<g id="edge21" class="edge"><title>German Renewable Energy Act&#45;&gt;Outline of energy</title>
<path fill="none" stroke="black" d="M920.374,-120.458C880.488,-173.992 762.647,-332.155 715.933,-394.854"/>
<polygon fill="black" stroke="black" points="712.997,-392.936 709.829,-403.046 718.61,-397.118 712.997,-392.936"/>
</g>
<!-- Outline of energy&#45;&gt;Primary energy -->
<g id="edge29" class="edge"><title>Outline of energy&#45;&gt;Primary energy</title>
<path fill="none" stroke="black" d="M751.166,-408.83C834.641,-390.412 993.427,-355.379 1080.73,-336.117"/>
<polygon fill="black" stroke="black" points="1081.74,-339.477 1090.75,-333.905 1080.23,-332.642 1081.74,-339.477"/>
</g>
<!-- Outline of energy&#45;&gt;Renewable energy commercialization -->
<g id="edge30" class="edge"><title>Outline of energy&#45;&gt;Renewable energy commercialization</title>
<path fill="none" stroke="black" d="M703.674,-439.106C724.472,-490.646 789.154,-640.212 876.754,-740.447 983.903,-863.05 1149.56,-967.516 1225.23,-1011.84"/>
<polygon fill="black" stroke="black" points="1223.6,-1014.94 1234,-1016.94 1227.12,-1008.89 1223.6,-1014.94"/>
</g>
<!-- Net energy gain -->
<g id="node17" class="node"><title>Net energy gain</title>
<ellipse fill="none" stroke="black" cx="184.438" cy="-96.8165" rx="66.8882" ry="18"/>
<text text-anchor="middle" x="184.438" y="-93.1165" font-family="Times New Roman,serif" font-size="14.00">Net energy gain</text>
</g>
<!-- Outline of energy&#45;&gt;Net energy gain -->
<g id="edge31" class="edge"><title>Outline of energy&#45;&gt;Net energy gain</title>
<path fill="none" stroke="black" d="M669.728,-403.916C583.814,-349.548 315.372,-179.673 219.173,-118.797"/>
<polygon fill="black" stroke="black" points="221,-115.811 210.678,-113.421 217.257,-121.726 221,-115.811"/>
</g>
<!-- National Renewable Energy Laboratory&#45;&gt;Renewable energy -->
<g id="edge34" class="edge"><title>National Renewable Energy Laboratory&#45;&gt;Renewable energy</title>
<path fill="none" stroke="black" d="M1799.88,-205.871C1726.93,-287.045 1458.75,-615.997 1387.45,-711.567"/>
<polygon fill="black" stroke="black" points="1384.48,-709.695 1381.36,-719.82 1390.12,-713.852 1384.48,-709.695"/>
</g>
<!-- Energy Autonomy: The Economic, Social &amp; Technological Case for Renewable Energy -->
<g id="node18" class="node"><title>Energy Autonomy: The Economic, Social &amp; Technological Case for Renewable Energy</title>
<ellipse fill="none" stroke="black" cx="1594.59" cy="-934.524" rx="328.742" ry="18"/>
<text text-anchor="middle" x="1594.59" y="-930.824" font-family="Times New Roman,serif" font-size="14.00">Energy Autonomy: The Economic, Social &amp; Technological Case for Renewable Energy</text>
</g>
<!-- Energy Autonomy: The Economic, Social &amp; Technological Case for Renewable Energy&#45;&gt;Renewable energy commercialization -->
<g id="edge32" class="edge"><title>Energy Autonomy: The Economic, Social &amp; Technological Case for Renewable Energy&#45;&gt;Renewable energy commercialization</title>
<path fill="none" stroke="black" d="M1536.12,-952.293C1478.28,-969.871 1389.95,-996.711 1330.05,-1014.91"/>
<polygon fill="black" stroke="black" points="1328.87,-1011.62 1320.32,-1017.87 1330.91,-1018.31 1328.87,-1011.62"/>
</g>
<!-- Energy Autonomy: The Economic, Social &amp; Technological Case for Renewable Energy&#45;&gt;Renewable energy -->
<g id="edge33" class="edge"><title>Energy Autonomy: The Economic, Social &amp; Technological Case for Renewable Energy&#45;&gt;Renewable energy</title>
<path fill="none" stroke="black" d="M1573.87,-916.358C1533.31,-880.802 1443.42,-802.009 1397.78,-762.001"/>
<polygon fill="black" stroke="black" points="1399.88,-759.192 1390.05,-755.232 1395.27,-764.456 1399.88,-759.192"/>
</g>
<!-- Hybrid renewable energy system -->
<g id="node19" class="node"><title>Hybrid renewable energy system</title>
<ellipse fill="none" stroke="black" cx="1484.08" cy="-18" rx="128.877" ry="18"/>
<text text-anchor="middle" x="1484.08" y="-14.3" font-family="Times New Roman,serif" font-size="14.00">Hybrid renewable energy system</text>
</g>
<!-- Hybrid renewable energy system&#45;&gt;Renewable energy -->
<g id="edge35" class="edge"><title>Hybrid renewable energy system&#45;&gt;Renewable energy</title>
<path fill="none" stroke="black" d="M1481.2,-36.1498C1465.82,-133.182 1393.32,-590.721 1374.5,-709.467"/>
<polygon fill="black" stroke="black" points="1371,-709.152 1372.9,-719.576 1377.92,-710.247 1371,-709.152"/>
</g>
<!-- The School for Renewable Energy Science -->
<g id="node20" class="node"><title>The School for Renewable Energy Science</title>
<ellipse fill="none" stroke="black" cx="2062.89" cy="-477.018" rx="167.07" ry="18"/>
<text text-anchor="middle" x="2062.89" y="-473.318" font-family="Times New Roman,serif" font-size="14.00">The School for Renewable Energy Science</text>
</g>
<!-- The School for Renewable Energy Science&#45;&gt;Renewable energy -->
<g id="edge36" class="edge"><title>The School for Renewable Energy Science&#45;&gt;Renewable energy</title>
<path fill="none" stroke="black" d="M2016.9,-494.323C1892.44,-541.143 1549.77,-670.057 1420.38,-718.734"/>
<polygon fill="black" stroke="black" points="1418.84,-715.575 1410.71,-722.372 1421.3,-722.127 1418.84,-715.575"/>
</g>
</g>
</svg>
