<?xml version="1.0" encoding="UTF-8" standalone="no"?>
<!DOCTYPE svg PUBLIC "-//W3C//DTD SVG 1.1//EN"
 "http://www.w3.org/Graphics/SVG/1.1/DTD/svg11.dtd">
<!-- Generated by graphviz version 2.30.1 (20130214.1330)
 -->
<!-- Title: G Pages: 1 -->
<svg width="1453pt" height="722pt"
 viewBox="0.00 0.00 1452.84 721.73" xmlns="http://www.w3.org/2000/svg" xmlns:xlink="http://www.w3.org/1999/xlink">
<g id="graph0" class="graph" transform="scale(1 1) rotate(0) translate(4 717.726)">
<title>G</title>
<!-- President of Ireland -->
<g id="node1" class="node"><title>President of Ireland</title>
<ellipse fill="none" stroke="black" cx="1022.33" cy="-106.695" rx="81.7856" ry="18"/>
<text text-anchor="middle" x="1022.33" y="-102.995" font-family="Times New Roman,serif" font-size="14.00">President of Ireland</text>
</g>
<!-- State visit -->
<g id="node2" class="node"><title>State visit</title>
<ellipse fill="none" stroke="black" cx="1116.34" cy="-62.3407" rx="46.2923" ry="18"/>
<text text-anchor="middle" x="1116.34" y="-58.6407" font-family="Times New Roman,serif" font-size="14.00">State visit</text>
</g>
<!-- President of Ireland&#45;&gt;State visit -->
<g id="edge1" class="edge"><title>President of Ireland&#45;&gt;State visit</title>
<path fill="none" stroke="black" d="M1057.07,-90.3049C1063.76,-87.1493 1070.8,-83.8256 1077.61,-80.6146"/>
<polygon fill="black" stroke="black" points="1079.14,-83.7647 1086.69,-76.3323 1076.15,-77.4339 1079.14,-83.7647"/>
</g>
<!-- Queen Elizabeth II&#39;s visit to the Republic of Ireland -->
<g id="node6" class="node"><title>Queen Elizabeth II&#39;s visit to the Republic of Ireland</title>
<ellipse fill="none" stroke="black" cx="1021.28" cy="-18" rx="196.065" ry="18"/>
<text text-anchor="middle" x="1021.28" y="-14.3" font-family="Times New Roman,serif" font-size="14.00">Queen Elizabeth II&#39;s visit to the Republic of Ireland</text>
</g>
<!-- State visit&#45;&gt;Queen Elizabeth II&#39;s visit to the Republic of Ireland -->
<g id="edge12" class="edge"><title>State visit&#45;&gt;Queen Elizabeth II&#39;s visit to the Republic of Ireland</title>
<path fill="none" stroke="black" d="M1095.34,-46.0189C1091.71,-44.0112 1087.78,-41.9433 1083.69,-39.8798"/>
<polygon fill="black" stroke="black" points="1085.04,-36.6438 1074.52,-35.3948 1081.96,-42.9322 1085.04,-36.6438"/>
</g>
<!-- Education in Stockholm -->
<g id="node3" class="node"><title>Education in Stockholm</title>
<ellipse fill="none" stroke="black" cx="851.133" cy="-478.147" rx="98.2828" ry="18"/>
<text text-anchor="middle" x="851.133" y="-474.447" font-family="Times New Roman,serif" font-size="14.00">Education in Stockholm</text>
</g>
<!-- Royal Institute of Technology -->
<g id="node4" class="node"><title>Royal Institute of Technology</title>
<ellipse fill="none" stroke="black" cx="535.504" cy="-384.209" rx="119.679" ry="18"/>
<text text-anchor="middle" x="535.504" y="-380.509" font-family="Times New Roman,serif" font-size="14.00">Royal Institute of Technology</text>
</g>
<!-- Education in Stockholm&#45;&gt;Royal Institute of Technology -->
<g id="edge2" class="edge"><title>Education in Stockholm&#45;&gt;Royal Institute of Technology</title>
<path fill="none" stroke="black" d="M799.367,-462.74C744.727,-446.478 658.521,-420.821 599.617,-403.29"/>
<polygon fill="black" stroke="black" points="600.263,-399.831 589.68,-400.333 598.266,-406.54 600.263,-399.831"/>
</g>
<!-- Student Union at the Royal Institute of Technology -->
<g id="node5" class="node"><title>Student Union at the Royal Institute of Technology</title>
<ellipse fill="none" stroke="black" cx="246.547" cy="-538.321" rx="196.065" ry="18"/>
<text text-anchor="middle" x="246.547" y="-534.621" font-family="Times New Roman,serif" font-size="14.00">Student Union at the Royal Institute of Technology</text>
</g>
<!-- Student Union at the Royal Institute of Technology&#45;&gt;Royal Institute of Technology -->
<g id="edge3" class="edge"><title>Student Union at the Royal Institute of Technology&#45;&gt;Royal Institute of Technology</title>
<path fill="none" stroke="black" d="M279.977,-520.492C332.998,-492.213 436.266,-437.137 493.964,-406.364"/>
<polygon fill="black" stroke="black" points="495.642,-409.436 502.818,-401.642 492.348,-403.259 495.642,-409.436"/>
</g>
<!-- Queen Elizabeth II&#39;s visit to the Republic of Ireland&#45;&gt;State visit -->
<g id="edge4" class="edge"><title>Queen Elizabeth II&#39;s visit to the Republic of Ireland&#45;&gt;State visit</title>
<path fill="none" stroke="black" d="M1045.17,-35.9007C1052.48,-39.8334 1060.77,-43.9283 1069.05,-47.7179"/>
<polygon fill="black" stroke="black" points="1067.79,-50.9861 1078.35,-51.8418 1070.63,-44.5874 1067.79,-50.9861"/>
</g>
<!-- Queen Elizabeth II&#39;s visit to the Republic of Ireland&#45;&gt;President of Ireland -->
<g id="edge5" class="edge"><title>Queen Elizabeth II&#39;s visit to the Republic of Ireland&#45;&gt;President of Ireland</title>
<path fill="none" stroke="black" d="M1021.5,-36.3776C1021.64,-48.469 1021.83,-64.5371 1022,-78.2611"/>
<polygon fill="black" stroke="black" points="1018.5,-78.6863 1022.12,-88.6441 1025.5,-78.6034 1018.5,-78.6863"/>
</g>
<!-- Presidential transition of Barack Obama -->
<g id="node7" class="node"><title>Presidential transition of Barack Obama</title>
<ellipse fill="none" stroke="black" cx="1290.15" cy="-403" rx="154.873" ry="18"/>
<text text-anchor="middle" x="1290.15" y="-399.3" font-family="Times New Roman,serif" font-size="14.00">Presidential transition of Barack Obama</text>
</g>
<!-- Chief Technology Officer of the United States -->
<g id="node8" class="node"><title>Chief Technology Officer of the United States</title>
<ellipse fill="none" stroke="black" cx="948.734" cy="-403" rx="178.969" ry="18"/>
<text text-anchor="middle" x="948.734" y="-399.3" font-family="Times New Roman,serif" font-size="14.00">Chief Technology Officer of the United States</text>
</g>
<!-- Presidential transition of Barack Obama&#45;&gt;Chief Technology Officer of the United States -->
<g id="edge6" class="edge"><title>Presidential transition of Barack Obama&#45;&gt;Chief Technology Officer of the United States</title>
<path fill="none" stroke="black" d="M1135.43,-403C1135.26,-403 1135.1,-403 1134.93,-403"/>
<polygon fill="black" stroke="black" points="1137.48,-399.5 1127.48,-403 1137.47,-406.5 1137.48,-399.5"/>
</g>
<!-- Visit -->
<g id="node9" class="node"><title>Visit</title>
<ellipse fill="none" stroke="black" cx="1231.52" cy="-62" rx="27.0966" ry="18"/>
<text text-anchor="middle" x="1231.52" y="-58.3" font-family="Times New Roman,serif" font-size="14.00">Visit</text>
</g>
<!-- Visit&#45;&gt;State visit -->
<g id="edge7" class="edge"><title>Visit&#45;&gt;State visit</title>
<path fill="none" stroke="black" d="M1203.93,-62.0816C1194.55,-62.1094 1183.7,-62.1415 1172.89,-62.1734"/>
<polygon fill="black" stroke="black" points="1172.59,-58.6742 1162.6,-62.2039 1172.61,-65.6742 1172.59,-58.6742"/>
</g>
<!-- Mälardalen University College -->
<g id="node10" class="node"><title>Mälardalen University College</title>
<ellipse fill="none" stroke="black" cx="631.779" cy="-73" rx="118.879" ry="18"/>
<text text-anchor="middle" x="631.779" y="-69.3" font-family="Times New Roman,serif" font-size="14.00">Mälardalen University College</text>
</g>
<!-- Mälardalen University College&#45;&gt;Royal Institute of Technology -->
<g id="edge8" class="edge"><title>Mälardalen University College&#45;&gt;Royal Institute of Technology</title>
<path fill="none" stroke="black" d="M626.187,-91.0771C610.068,-143.18 563.435,-293.922 544.081,-356.485"/>
<polygon fill="black" stroke="black" points="540.724,-355.494 541.112,-366.082 547.411,-357.563 540.724,-355.494"/>
</g>
<!-- KTH (disambiguation) -->
<g id="node11" class="node"><title>KTH (disambiguation)</title>
<ellipse fill="none" stroke="black" cx="821.674" cy="-231.203" rx="92.0841" ry="18"/>
<text text-anchor="middle" x="821.674" y="-227.503" font-family="Times New Roman,serif" font-size="14.00">KTH (disambiguation)</text>
</g>
<!-- KTH (disambiguation)&#45;&gt;Royal Institute of Technology -->
<g id="edge9" class="edge"><title>KTH (disambiguation)&#45;&gt;Royal Institute of Technology</title>
<path fill="none" stroke="black" d="M789.955,-248.162C738.017,-275.932 634.846,-331.094 577.106,-361.966"/>
<polygon fill="black" stroke="black" points="575.413,-358.902 568.244,-366.704 578.713,-365.075 575.413,-358.902"/>
</g>
<!-- Royal institute -->
<g id="node12" class="node"><title>Royal institute</title>
<ellipse fill="none" stroke="black" cx="441.912" cy="-695.726" rx="62.2891" ry="18"/>
<text text-anchor="middle" x="441.912" y="-692.026" font-family="Times New Roman,serif" font-size="14.00">Royal institute</text>
</g>
<!-- Royal institute&#45;&gt;Royal Institute of Technology -->
<g id="edge10" class="edge"><title>Royal institute&#45;&gt;Royal Institute of Technology</title>
<path fill="none" stroke="black" d="M447.349,-677.631C463.018,-625.477 508.352,-474.585 527.167,-411.96"/>
<polygon fill="black" stroke="black" points="530.527,-412.938 530.053,-402.354 523.823,-410.924 530.527,-412.938"/>
</g>
<!-- Johan Richter (inventor) -->
<g id="node13" class="node"><title>Johan Richter (inventor)</title>
<ellipse fill="none" stroke="black" cx="688.931" cy="-670.77" rx="98.2828" ry="18"/>
<text text-anchor="middle" x="688.931" y="-667.07" font-family="Times New Roman,serif" font-size="14.00">Johan Richter (inventor)</text>
</g>
<!-- Johan Richter (inventor)&#45;&gt;Royal Institute of Technology -->
<g id="edge11" class="edge"><title>Johan Richter (inventor)&#45;&gt;Royal Institute of Technology</title>
<path fill="none" stroke="black" d="M679.334,-652.844C653.295,-604.212 581.194,-469.546 550.094,-411.458"/>
<polygon fill="black" stroke="black" points="553.102,-409.661 545.296,-402.497 546.93,-412.965 553.102,-409.661"/>
</g>
<!-- University of Engineering Science and Technology, Sialkot -->
<g id="node14" class="node"><title>University of Engineering Science and Technology, Sialkot</title>
<ellipse fill="none" stroke="black" cx="223.58" cy="-288.531" rx="223.66" ry="18"/>
<text text-anchor="middle" x="223.58" y="-284.831" font-family="Times New Roman,serif" font-size="14.00">University of Engineering Science and Technology, Sialkot</text>
</g>
<!-- University of Engineering Science and Technology, Sialkot&#45;&gt;Royal Institute of Technology -->
<g id="edge13" class="edge"><title>University of Engineering Science and Technology, Sialkot&#45;&gt;Royal Institute of Technology</title>
<path fill="none" stroke="black" d="M280.429,-305.968C334.801,-322.646 416.615,-347.741 472.844,-364.989"/>
<polygon fill="black" stroke="black" points="472.098,-368.421 482.684,-368.007 474.15,-361.728 472.098,-368.421"/>
</g>
<!-- Institute for Surface Chemistry -->
<g id="node15" class="node"><title>Institute for Surface Chemistry</title>
<ellipse fill="none" stroke="black" cx="382.65" cy="-96.525" rx="122.379" ry="18"/>
<text text-anchor="middle" x="382.65" y="-92.825" font-family="Times New Roman,serif" font-size="14.00">Institute for Surface Chemistry</text>
</g>
<!-- Institute for Surface Chemistry&#45;&gt;Royal Institute of Technology -->
<g id="edge14" class="edge"><title>Institute for Surface Chemistry&#45;&gt;Royal Institute of Technology</title>
<path fill="none" stroke="black" d="M392.212,-114.521C418.215,-163.461 490.328,-299.184 521.19,-357.269"/>
<polygon fill="black" stroke="black" points="518.163,-359.031 525.946,-366.22 524.345,-355.747 518.163,-359.031"/>
</g>
</g>
</svg>
