<?xml version="1.0" encoding="UTF-8" standalone="no"?>
<!DOCTYPE svg PUBLIC "-//W3C//DTD SVG 1.1//EN"
 "http://www.w3.org/Graphics/SVG/1.1/DTD/svg11.dtd">
<!-- Generated by graphviz version 2.30.1 (20130214.1330)
 -->
<!-- Title: G Pages: 1 -->
<svg width="2255pt" height="1645pt"
 viewBox="0.00 0.00 2254.65 1645.32" xmlns="http://www.w3.org/2000/svg" xmlns:xlink="http://www.w3.org/1999/xlink">
<g id="graph0" class="graph" transform="scale(1 1) rotate(0) translate(4 1641.32)">
<title>G</title>
<!-- Timeline of the Presidency of Barack Obama (2011) -->
<g id="node1" class="node"><title>Timeline of the Presidency of Barack Obama (2011)</title>
<ellipse fill="none" stroke="black" cx="593.534" cy="-1449.57" rx="200.365" ry="18"/>
<text text-anchor="middle" x="593.534" y="-1445.87" font-family="Times New Roman,serif" font-size="14.00">Timeline of the Presidency of Barack Obama (2011)</text>
</g>
<!-- Presidency of Barack Obama -->
<g id="node2" class="node"><title>Presidency of Barack Obama</title>
<ellipse fill="none" stroke="black" cx="638.941" cy="-850.559" rx="117.779" ry="18"/>
<text text-anchor="middle" x="638.941" y="-846.859" font-family="Times New Roman,serif" font-size="14.00">Presidency of Barack Obama</text>
</g>
<!-- Timeline of the Presidency of Barack Obama (2011)&#45;&gt;Presidency of Barack Obama -->
<g id="edge1" class="edge"><title>Timeline of the Presidency of Barack Obama (2011)&#45;&gt;Presidency of Barack Obama</title>
<path fill="none" stroke="black" d="M577.429,-1431.5C540.169,-1387.68 451.597,-1271.03 457.056,-1157.97 462.82,-1038.62 562.955,-924.773 612.129,-875.764"/>
<polygon fill="black" stroke="black" points="614.88,-877.969 619.562,-868.464 609.975,-872.975 614.88,-877.969"/>
</g>
<!-- Barack Obama -->
<g id="node3" class="node"><title>Barack Obama</title>
<ellipse fill="none" stroke="black" cx="1124.13" cy="-748.667" rx="64.9885" ry="18"/>
<text text-anchor="middle" x="1124.13" y="-744.967" font-family="Times New Roman,serif" font-size="14.00">Barack Obama</text>
</g>
<!-- Timeline of the Presidency of Barack Obama (2011)&#45;&gt;Barack Obama -->
<g id="edge2" class="edge"><title>Timeline of the Presidency of Barack Obama (2011)&#45;&gt;Barack Obama</title>
<path fill="none" stroke="black" d="M743.704,-1437.27C757.196,-1405.18 790.761,-1164.35 782.872,-1151.04 776.905,-1140.96 686.425,-1125.4 684.272,-1113.89 681.77,-1100.51 1012.14,-814.4 1070.34,-767.801"/>
<polygon fill="black" stroke="black" points="1072.74,-770.376 1078.62,-761.56 1068.53,-764.788 1072.74,-770.376"/>
</g>
<!-- Presidential transition of Barack Obama -->
<g id="node4" class="node"><title>Presidential transition of Barack Obama</title>
<ellipse fill="none" stroke="black" cx="613.342" cy="-1158.02" rx="154.873" ry="18"/>
<text text-anchor="middle" x="613.342" y="-1154.32" font-family="Times New Roman,serif" font-size="14.00">Presidential transition of Barack Obama</text>
</g>
<!-- Timeline of the Presidency of Barack Obama (2011)&#45;&gt;Presidential transition of Barack Obama -->
<g id="edge3" class="edge"><title>Timeline of the Presidency of Barack Obama (2011)&#45;&gt;Presidential transition of Barack Obama</title>
<path fill="none" stroke="black" d="M594.773,-1431.33C598.122,-1382.04 607.372,-1245.89 611.412,-1186.43"/>
<polygon fill="black" stroke="black" points="614.917,-1186.47 612.103,-1176.25 607.934,-1185.99 614.917,-1186.47"/>
</g>
<!-- Timeline of the Presidency of Barack Obama (2009) -->
<g id="node5" class="node"><title>Timeline of the Presidency of Barack Obama (2009)</title>
<ellipse fill="none" stroke="black" cx="886.049" cy="-1114.02" rx="200.365" ry="18"/>
<text text-anchor="middle" x="886.049" y="-1110.32" font-family="Times New Roman,serif" font-size="14.00">Timeline of the Presidency of Barack Obama (2009)</text>
</g>
<!-- Timeline of the Presidency of Barack Obama (2011)&#45;&gt;Timeline of the Presidency of Barack Obama (2009) -->
<g id="edge4" class="edge"><title>Timeline of the Presidency of Barack Obama (2011)&#45;&gt;Timeline of the Presidency of Barack Obama (2009)</title>
<path fill="none" stroke="black" d="M613.993,-1431.35C668.53,-1375.36 816.142,-1206.16 867.919,-1140.44"/>
<polygon fill="black" stroke="black" points="870.923,-1142.28 874.296,-1132.24 865.396,-1137.99 870.923,-1142.28"/>
</g>
<!-- Presidency of Barack Obama&#45;&gt;Barack Obama -->
<g id="edge40" class="edge"><title>Presidency of Barack Obama&#45;&gt;Barack Obama</title>
<path fill="none" stroke="black" d="M723.981,-838.07C823.87,-819.372 986.559,-784.936 1070.41,-764.508"/>
<polygon fill="black" stroke="black" points="1071.36,-767.878 1080.23,-762.088 1069.69,-761.081 1071.36,-767.878"/>
</g>
<!-- Early life and career of Barack Obama -->
<g id="node14" class="node"><title>Early life and career of Barack Obama</title>
<ellipse fill="none" stroke="black" cx="1215.51" cy="-323.616" rx="149.473" ry="18"/>
<text text-anchor="middle" x="1215.51" y="-319.916" font-family="Times New Roman,serif" font-size="14.00">Early life and career of Barack Obama</text>
</g>
<!-- Presidency of Barack Obama&#45;&gt;Early life and career of Barack Obama -->
<g id="edge41" class="edge"><title>Presidency of Barack Obama&#45;&gt;Early life and career of Barack Obama</title>
<path fill="none" stroke="black" d="M648.398,-832.352C667.464,-796.723 713.244,-716.397 766.261,-660.481 898.635,-520.87 1093.9,-396.316 1176.42,-346.574"/>
<polygon fill="black" stroke="black" points="1178.44,-349.443 1185.22,-341.298 1174.84,-343.44 1178.44,-349.443"/>
</g>
<!-- Presidency of Barack Obama&#45;&gt;Presidential transition of Barack Obama -->
<g id="edge42" class="edge"><title>Presidency of Barack Obama&#45;&gt;Presidential transition of Barack Obama</title>
<path fill="none" stroke="black" d="M637.416,-868.872C633.121,-920.46 620.898,-1067.27 615.713,-1129.54"/>
<polygon fill="black" stroke="black" points="612.201,-1129.55 614.859,-1139.81 619.176,-1130.13 612.201,-1129.55"/>
</g>
<!-- Public image of Barack Obama -->
<g id="node12" class="node"><title>Public image of Barack Obama</title>
<ellipse fill="none" stroke="black" cx="767.11" cy="-215.301" rx="124.278" ry="18"/>
<text text-anchor="middle" x="767.11" y="-211.601" font-family="Times New Roman,serif" font-size="14.00">Public image of Barack Obama</text>
</g>
<!-- Presidency of Barack Obama&#45;&gt;Public image of Barack Obama -->
<g id="edge43" class="edge"><title>Presidency of Barack Obama&#45;&gt;Public image of Barack Obama</title>
<path fill="none" stroke="black" d="M648.123,-832.306C673.746,-780.202 745.683,-625.646 769.145,-487.769 784.153,-399.573 775.876,-292.984 770.527,-243.313"/>
<polygon fill="black" stroke="black" points="774,-242.875 769.407,-233.328 767.043,-243.656 774,-242.875"/>
</g>
<!-- Inauguration of Barack Obama -->
<g id="node6" class="node"><title>Inauguration of Barack Obama</title>
<ellipse fill="none" stroke="black" cx="371.447" cy="-798.141" rx="122.379" ry="18"/>
<text text-anchor="middle" x="371.447" y="-794.441" font-family="Times New Roman,serif" font-size="14.00">Inauguration of Barack Obama</text>
</g>
<!-- Presidency of Barack Obama&#45;&gt;Inauguration of Barack Obama -->
<g id="edge44" class="edge"><title>Presidency of Barack Obama&#45;&gt;Inauguration of Barack Obama</title>
<path fill="none" stroke="black" d="M585.556,-834.433C553.865,-827.107 512.61,-818.676 474.781,-811.686"/>
<polygon fill="black" stroke="black" points="475.198,-808.205 464.731,-809.849 473.939,-815.09 475.198,-808.205"/>
</g>
<!-- Family of Barack Obama -->
<g id="node11" class="node"><title>Family of Barack Obama</title>
<ellipse fill="none" stroke="black" cx="869.901" cy="-660.577" rx="102.082" ry="18"/>
<text text-anchor="middle" x="869.901" y="-656.877" font-family="Times New Roman,serif" font-size="14.00">Family of Barack Obama</text>
</g>
<!-- Presidency of Barack Obama&#45;&gt;Family of Barack Obama -->
<g id="edge45" class="edge"><title>Presidency of Barack Obama&#45;&gt;Family of Barack Obama</title>
<path fill="none" stroke="black" d="M667.356,-832.925C713.652,-798.836 804.253,-724.318 846.84,-685.312"/>
<polygon fill="black" stroke="black" points="849.271,-687.831 854.212,-678.459 844.505,-682.704 849.271,-687.831"/>
</g>
<!-- Barack Obama presidential campaign, 2008 -->
<g id="node8" class="node"><title>Barack Obama presidential campaign, 2008</title>
<ellipse fill="none" stroke="black" cx="599.86" cy="-487.747" rx="167.87" ry="18"/>
<text text-anchor="middle" x="599.86" y="-484.047" font-family="Times New Roman,serif" font-size="14.00">Barack Obama presidential campaign, 2008</text>
</g>
<!-- Presidency of Barack Obama&#45;&gt;Barack Obama presidential campaign, 2008 -->
<g id="edge46" class="edge"><title>Presidency of Barack Obama&#45;&gt;Barack Obama presidential campaign, 2008</title>
<path fill="none" stroke="black" d="M636.949,-832.069C630.558,-772.733 610.536,-586.863 602.879,-515.777"/>
<polygon fill="black" stroke="black" points="606.352,-515.337 601.801,-505.77 599.393,-516.087 606.352,-515.337"/>
</g>
<!-- Timeline of the Presidency of Barack Obama -->
<g id="node9" class="node"><title>Timeline of the Presidency of Barack Obama</title>
<ellipse fill="none" stroke="black" cx="174.185" cy="-1329.2" rx="174.369" ry="18"/>
<text text-anchor="middle" x="174.185" y="-1325.5" font-family="Times New Roman,serif" font-size="14.00">Timeline of the Presidency of Barack Obama</text>
</g>
<!-- Presidency of Barack Obama&#45;&gt;Timeline of the Presidency of Barack Obama -->
<g id="edge47" class="edge"><title>Presidency of Barack Obama&#45;&gt;Timeline of the Presidency of Barack Obama</title>
<path fill="none" stroke="black" d="M621.57,-868.449C550.467,-941.675 281.475,-1218.7 198.625,-1304.03"/>
<polygon fill="black" stroke="black" points="196.098,-1301.6 191.643,-1311.22 201.12,-1306.48 196.098,-1301.6"/>
</g>
<!-- Barack Obama&#45;&gt;Public image of Barack Obama -->
<g id="edge21" class="edge"><title>Barack Obama&#45;&gt;Public image of Barack Obama</title>
<path fill="none" stroke="black" d="M1115.17,-730.703C1068.73,-651.67 857.16,-335.195 788.544,-241.517"/>
<polygon fill="black" stroke="black" points="791.307,-239.366 782.545,-233.409 785.68,-243.53 791.307,-239.366"/>
</g>
<!-- Barack Obama&#45;&gt;Inauguration of Barack Obama -->
<g id="edge22" class="edge"><title>Barack Obama&#45;&gt;Inauguration of Barack Obama</title>
<path fill="none" stroke="black" d="M1059.04,-748.94C929.199,-754.124 636.874,-773.039 478.418,-786.208"/>
<polygon fill="black" stroke="black" points="477.85,-782.743 468.177,-787.067 478.435,-789.719 477.85,-782.743"/>
</g>
<!-- Barack Obama&#45;&gt;Presidency of Barack Obama -->
<g id="edge23" class="edge"><title>Barack Obama&#45;&gt;Presidency of Barack Obama</title>
<path fill="none" stroke="black" d="M1065.15,-756.384C973.587,-772.717 797.963,-809.526 703.254,-832.164"/>
<polygon fill="black" stroke="black" points="702.411,-828.767 693.51,-834.513 704.052,-835.572 702.411,-828.767"/>
</g>
<!-- Barack Obama, Sr. -->
<g id="node13" class="node"><title>Barack Obama, Sr.</title>
<ellipse fill="none" stroke="black" cx="1396.23" cy="-593.083" rx="80.6858" ry="18"/>
<text text-anchor="middle" x="1396.23" y="-589.383" font-family="Times New Roman,serif" font-size="14.00">Barack Obama, Sr.</text>
</g>
<!-- Barack Obama&#45;&gt;Barack Obama, Sr. -->
<g id="edge24" class="edge"><title>Barack Obama&#45;&gt;Barack Obama, Sr.</title>
<path fill="none" stroke="black" d="M1159.79,-733.595C1213.55,-706.139 1314.37,-648.485 1365.25,-616.11"/>
<polygon fill="black" stroke="black" points="1367.34,-618.925 1373.85,-610.564 1363.55,-613.042 1367.34,-618.925"/>
</g>
<!-- Barack Obama&#45;&gt;Early life and career of Barack Obama -->
<g id="edge25" class="edge"><title>Barack Obama&#45;&gt;Early life and career of Barack Obama</title>
<path fill="none" stroke="black" d="M1131.02,-730.755C1150.22,-664.487 1200.19,-432.944 1213.05,-351.892"/>
<polygon fill="black" stroke="black" points="1216.53,-352.323 1214.56,-341.913 1209.61,-351.281 1216.53,-352.323"/>
</g>
<!-- Barack Obama&#45;&gt;Family of Barack Obama -->
<g id="edge26" class="edge"><title>Barack Obama&#45;&gt;Family of Barack Obama</title>
<path fill="none" stroke="black" d="M1092.7,-732.784C1054.74,-717.354 989.772,-694.374 939.754,-678.377"/>
<polygon fill="black" stroke="black" points="940.552,-674.958 929.962,-675.275 938.438,-681.632 940.552,-674.958"/>
</g>
<!-- Barack Obama&#45;&gt;Timeline of the Presidency of Barack Obama (2009) -->
<g id="edge27" class="edge"><title>Barack Obama&#45;&gt;Timeline of the Presidency of Barack Obama (2009)</title>
<path fill="none" stroke="black" d="M1108.6,-766.529C1064.6,-825.766 940.733,-1015.62 899.452,-1086.79"/>
<polygon fill="black" stroke="black" points="896.321,-1085.21 894.406,-1095.63 902.401,-1088.68 896.321,-1085.21"/>
</g>
<!-- Barack Obama&#45;&gt;Barack Obama presidential campaign, 2008 -->
<g id="edge28" class="edge"><title>Barack Obama&#45;&gt;Barack Obama presidential campaign, 2008</title>
<path fill="none" stroke="black" d="M1071.28,-738.105C992.176,-722.057 846.726,-691.555 796.256,-674.368 782.35,-669.632 778.228,-669.003 766.261,-660.481 734.49,-637.855 660.086,-555.814 622.502,-513.483"/>
<polygon fill="black" stroke="black" points="624.965,-510.986 615.715,-505.82 619.725,-515.627 624.965,-510.986"/>
</g>
<!-- Barack Obama&#45;&gt;Presidential transition of Barack Obama -->
<g id="edge29" class="edge"><title>Barack Obama&#45;&gt;Presidential transition of Barack Obama</title>
<path fill="none" stroke="black" d="M1098.26,-765.466C1010.6,-829.517 725.831,-1057.65 638.798,-1133.44"/>
<polygon fill="black" stroke="black" points="636.439,-1130.85 631.236,-1140.08 641.059,-1136.11 636.439,-1130.85"/>
</g>
<!-- Barack Obama&#45;&gt;Timeline of the Presidency of Barack Obama (2011) -->
<g id="edge30" class="edge"><title>Barack Obama&#45;&gt;Timeline of the Presidency of Barack Obama (2011)</title>
<path fill="none" stroke="black" d="M1071.89,-759.396C1036.52,-785.123 667.041,-1101.43 669.391,-1115.78 671.345,-1127.71 763.539,-1147.63 769.628,-1158.08 776.718,-1170.24 753.549,-1379.53 738.191,-1427.42"/>
<polygon fill="black" stroke="black" points="734.906,-1426.18 733.718,-1436.71 741.212,-1429.22 734.906,-1426.18"/>
</g>
<!-- Presidential transition of Barack Obama&#45;&gt;Barack Obama -->
<g id="edge36" class="edge"><title>Presidential transition of Barack Obama&#45;&gt;Barack Obama</title>
<path fill="none" stroke="black" d="M640.641,-1140.18C730.013,-1074.67 1012.67,-848.182 1098.93,-773.027"/>
<polygon fill="black" stroke="black" points="1101.46,-775.469 1106.66,-766.237 1096.84,-770.212 1101.46,-775.469"/>
</g>
<!-- Chief Technology Officer of the United States -->
<g id="node15" class="node"><title>Chief Technology Officer of the United States</title>
<ellipse fill="none" stroke="black" cx="1111.59" cy="-1619.32" rx="178.969" ry="18"/>
<text text-anchor="middle" x="1111.59" y="-1615.62" font-family="Times New Roman,serif" font-size="14.00">Chief Technology Officer of the United States</text>
</g>
<!-- Presidential transition of Barack Obama&#45;&gt;Chief Technology Officer of the United States -->
<g id="edge37" class="edge"><title>Presidential transition of Barack Obama&#45;&gt;Chief Technology Officer of the United States</title>
<path fill="none" stroke="black" d="M632.874,-1176.11C710.243,-1247.74 995.34,-1511.69 1084.65,-1594.38"/>
<polygon fill="black" stroke="black" points="1082.48,-1597.14 1092.19,-1601.36 1087.23,-1592 1082.48,-1597.14"/>
</g>
<!-- Presidential transition of Barack Obama&#45;&gt;Inauguration of Barack Obama -->
<g id="edge38" class="edge"><title>Presidential transition of Barack Obama&#45;&gt;Inauguration of Barack Obama</title>
<path fill="none" stroke="black" d="M604.836,-1139.93C570.772,-1080.89 445.518,-894.05 393.818,-824.506"/>
<polygon fill="black" stroke="black" points="396.411,-822.131 387.601,-816.246 390.818,-826.34 396.411,-822.131"/>
</g>
<!-- Presidential transition of Barack Obama&#45;&gt;Barack Obama presidential campaign, 2008 -->
<g id="edge39" class="edge"><title>Presidential transition of Barack Obama&#45;&gt;Barack Obama presidential campaign, 2008</title>
<path fill="none" stroke="black" d="M505.014,-1145.07C504.019,-1144.74 503.373,-1144.42 503.127,-1144.13 492.667,-1131.57 517.473,-866.599 519.705,-850.409 528.785,-784.52 575.291,-589.281 592.988,-516.031"/>
<polygon fill="black" stroke="black" points="596.432,-516.681 595.382,-506.138 589.628,-515.034 596.432,-516.681"/>
</g>
<!-- Timeline of the Presidency of Barack Obama (2009)&#45;&gt;Presidency of Barack Obama -->
<g id="edge59" class="edge"><title>Timeline of the Presidency of Barack Obama (2009)&#45;&gt;Presidency of Barack Obama</title>
<path fill="none" stroke="black" d="M869.064,-1095.92C826.022,-1050.02 712.564,-929.056 662.851,-876.053"/>
<polygon fill="black" stroke="black" points="665.111,-873.346 655.718,-868.447 660.006,-878.135 665.111,-873.346"/>
</g>
<!-- Timeline of the Presidency of Barack Obama (2009)&#45;&gt;Barack Obama -->
<g id="edge60" class="edge"><title>Timeline of the Presidency of Barack Obama (2009)&#45;&gt;Barack Obama</title>
<path fill="none" stroke="black" d="M901.768,-1095.91C946.039,-1036.24 1070.14,-845.999 1111.04,-775.359"/>
<polygon fill="black" stroke="black" points="1114.13,-777.012 1116.04,-766.59 1108.05,-773.549 1114.13,-777.012"/>
</g>
<!-- Timeline of the Presidency of Barack Obama (2009)&#45;&gt;Barack Obama, Sr. -->
<g id="edge61" class="edge"><title>Timeline of the Presidency of Barack Obama (2009)&#45;&gt;Barack Obama, Sr.</title>
<path fill="none" stroke="black" d="M903.611,-1096.09C979.97,-1018.12 1283.24,-708.46 1371.82,-618.012"/>
<polygon fill="black" stroke="black" points="1374.51,-620.266 1379.01,-610.673 1369.51,-615.369 1374.51,-620.266"/>
</g>
<!-- Timeline of the Presidency of Barack Obama (2009)&#45;&gt;Presidential transition of Barack Obama -->
<g id="edge62" class="edge"><title>Timeline of the Presidency of Barack Obama (2009)&#45;&gt;Presidential transition of Barack Obama</title>
<path fill="none" stroke="black" d="M788.366,-1129.79C764.187,-1133.69 738.24,-1137.87 713.926,-1141.8"/>
<polygon fill="black" stroke="black" points="713.293,-1138.35 703.978,-1143.4 714.408,-1145.26 713.293,-1138.35"/>
</g>
<!-- Timeline of the Presidency of Barack Obama (2009)&#45;&gt;Timeline of the Presidency of Barack Obama (2011) -->
<g id="edge63" class="edge"><title>Timeline of the Presidency of Barack Obama (2009)&#45;&gt;Timeline of the Presidency of Barack Obama (2011)</title>
<path fill="none" stroke="black" d="M865.591,-1132.24C811.053,-1188.23 663.441,-1357.43 611.665,-1423.15"/>
<polygon fill="black" stroke="black" points="608.66,-1421.31 605.288,-1431.35 614.187,-1425.61 608.66,-1421.31"/>
</g>
<!-- Timeline of the Presidency of Barack Obama (2009)&#45;&gt;Inauguration of Barack Obama -->
<g id="edge64" class="edge"><title>Timeline of the Presidency of Barack Obama (2009)&#45;&gt;Inauguration of Barack Obama</title>
<path fill="none" stroke="black" d="M856.907,-1096.14C769.074,-1042.22 506.943,-881.314 408.956,-821.165"/>
<polygon fill="black" stroke="black" points="410.622,-818.081 400.269,-815.833 406.96,-824.047 410.622,-818.081"/>
</g>
<!-- Timeline of the Presidency of Barack Obama (2009)&#45;&gt;Family of Barack Obama -->
<g id="edge65" class="edge"><title>Timeline of the Presidency of Barack Obama (2009)&#45;&gt;Family of Barack Obama</title>
<path fill="none" stroke="black" d="M888.258,-1095.87C890.747,-1025.94 881.976,-773.755 874.391,-688.766"/>
<polygon fill="black" stroke="black" points="877.852,-688.197 873.401,-678.583 870.885,-688.874 877.852,-688.197"/>
</g>
<!-- Inauguration of Barack Obama&#45;&gt;Presidency of Barack Obama -->
<g id="edge5" class="edge"><title>Inauguration of Barack Obama&#45;&gt;Presidency of Barack Obama</title>
<path fill="none" stroke="black" d="M425.152,-814.342C457.282,-821.761 499.159,-830.303 537.325,-837.331"/>
<polygon fill="black" stroke="black" points="536.993,-840.828 547.458,-839.177 538.248,-833.941 536.993,-840.828"/>
</g>
<!-- Inauguration of Barack Obama&#45;&gt;Barack Obama -->
<g id="edge6" class="edge"><title>Inauguration of Barack Obama&#45;&gt;Barack Obama</title>
<path fill="none" stroke="black" d="M492.296,-795.317C651.774,-787.322 927.213,-768.884 1055.14,-757.319"/>
<polygon fill="black" stroke="black" points="1055.56,-760.795 1065.2,-756.395 1054.92,-753.824 1055.56,-760.795"/>
</g>
<!-- Inauguration of Barack Obama&#45;&gt;Presidential transition of Barack Obama -->
<g id="edge7" class="edge"><title>Inauguration of Barack Obama&#45;&gt;Presidential transition of Barack Obama</title>
<path fill="none" stroke="black" d="M379.953,-816.23C414.017,-875.272 539.271,-1062.11 590.971,-1131.66"/>
<polygon fill="black" stroke="black" points="588.378,-1134.03 597.188,-1139.92 593.971,-1129.82 588.378,-1134.03"/>
</g>
<!-- Invitations to the inauguration of Barack Obama -->
<g id="node7" class="node"><title>Invitations to the inauguration of Barack Obama</title>
<ellipse fill="none" stroke="black" cx="402.124" cy="-69.0321" rx="184.667" ry="18"/>
<text text-anchor="middle" x="402.124" y="-65.3321" font-family="Times New Roman,serif" font-size="14.00">Invitations to the inauguration of Barack Obama</text>
</g>
<!-- Inauguration of Barack Obama&#45;&gt;Invitations to the inauguration of Barack Obama -->
<g id="edge8" class="edge"><title>Inauguration of Barack Obama&#45;&gt;Invitations to the inauguration of Barack Obama</title>
<path fill="none" stroke="black" d="M372.411,-779.77C372.447,-779.356 372.485,-778.946 372.523,-778.541 383.065,-667.317 441.09,-391.885 438.861,-280.185 438.157,-244.936 418.358,-146.141 408.133,-97.2548"/>
<polygon fill="black" stroke="black" points="411.532,-96.4099 406.048,-87.3446 404.682,-97.851 411.532,-96.4099"/>
</g>
<!-- Inauguration of Barack Obama&#45;&gt;Barack Obama presidential campaign, 2008 -->
<g id="edge9" class="edge"><title>Inauguration of Barack Obama&#45;&gt;Barack Obama presidential campaign, 2008</title>
<path fill="none" stroke="black" d="M389.301,-779.884C433.139,-727.331 544.669,-575.925 585.102,-514.275"/>
<polygon fill="black" stroke="black" points="588.055,-516.153 590.535,-505.852 582.173,-512.358 588.055,-516.153"/>
</g>
<!-- Inauguration of Barack Obama&#45;&gt;Timeline of the Presidency of Barack Obama -->
<g id="edge10" class="edge"><title>Inauguration of Barack Obama&#45;&gt;Timeline of the Presidency of Barack Obama</title>
<path fill="none" stroke="black" d="M364.771,-816.114C335.68,-894.43 219.87,-1206.2 184.499,-1301.43"/>
<polygon fill="black" stroke="black" points="181.162,-1300.36 180.96,-1310.95 187.724,-1302.8 181.162,-1300.36"/>
</g>
<!-- Invitations to the inauguration of Barack Obama&#45;&gt;Inauguration of Barack Obama -->
<g id="edge57" class="edge"><title>Invitations to the inauguration of Barack Obama&#45;&gt;Inauguration of Barack Obama</title>
<path fill="none" stroke="black" d="M404.532,-87.0675C410.295,-130.902 424.424,-242.617 423.861,-280.184 423.064,-333.297 352.133,-687.501 357.018,-769.77"/>
<polygon fill="black" stroke="black" points="353.569,-770.39 358.307,-779.867 360.513,-769.504 353.569,-770.39"/>
</g>
<!-- Invitations to the inauguration of Barack Obama&#45;&gt;Barack Obama -->
<g id="edge58" class="edge"><title>Invitations to the inauguration of Barack Obama&#45;&gt;Barack Obama</title>
<path fill="none" stroke="black" d="M421.436,-87.2107C521.839,-181.721 983.962,-616.723 1098.43,-724.471"/>
<polygon fill="black" stroke="black" points="1096.08,-727.066 1105.76,-731.372 1100.88,-721.969 1096.08,-727.066"/>
</g>
<!-- Barack Obama presidential campaign, 2008&#45;&gt;Inauguration of Barack Obama -->
<g id="edge32" class="edge"><title>Barack Obama presidential campaign, 2008&#45;&gt;Inauguration of Barack Obama</title>
<path fill="none" stroke="black" d="M582.006,-506.003C538.168,-558.557 426.637,-709.962 386.205,-771.613"/>
<polygon fill="black" stroke="black" points="383.252,-769.735 380.772,-780.035 389.134,-773.529 383.252,-769.735"/>
</g>
<!-- Barack Obama presidential campaign, 2008&#45;&gt;Barack Obama -->
<g id="edge33" class="edge"><title>Barack Obama presidential campaign, 2008&#45;&gt;Barack Obama</title>
<path fill="none" stroke="black" d="M613.72,-505.89C645.509,-547.19 723.768,-646.93 757.56,-672.699 770.776,-682.777 775.586,-683.522 791.421,-688.567 839.725,-703.96 974.355,-725.947 1056.77,-738.613"/>
<polygon fill="black" stroke="black" points="1056.38,-742.095 1066.8,-740.149 1057.44,-735.176 1056.38,-742.095"/>
</g>
<!-- Barack Obama presidential campaign, 2008&#45;&gt;Presidential transition of Barack Obama -->
<g id="edge34" class="edge"><title>Barack Obama presidential campaign, 2008&#45;&gt;Presidential transition of Barack Obama</title>
<path fill="none" stroke="black" d="M594.449,-505.989C575.818,-569.106 514.685,-778.989 504.845,-848.361 502.755,-863.095 489.739,-1080.44 494.856,-1136.22"/>
<polygon fill="black" stroke="black" points="491.403,-1136.79 496.395,-1146.14 498.321,-1135.72 491.403,-1136.79"/>
</g>
<!-- Barack Obama religion conspiracy theories -->
<g id="node16" class="node"><title>Barack Obama religion conspiracy theories</title>
<ellipse fill="none" stroke="black" cx="1169.03" cy="-18" rx="167.07" ry="18"/>
<text text-anchor="middle" x="1169.03" y="-14.3" font-family="Times New Roman,serif" font-size="14.00">Barack Obama religion conspiracy theories</text>
</g>
<!-- Barack Obama presidential campaign, 2008&#45;&gt;Barack Obama religion conspiracy theories -->
<g id="edge35" class="edge"><title>Barack Obama presidential campaign, 2008&#45;&gt;Barack Obama religion conspiracy theories</title>
<path fill="none" stroke="black" d="M626.196,-469.84C721.91,-397.349 1050.19,-126.473 1143.91,-42.7418"/>
<polygon fill="black" stroke="black" points="1146.4,-45.2014 1151.49,-35.9071 1141.72,-40.0011 1146.4,-45.2014"/>
</g>
<!-- Timeline of the Presidency of Barack Obama&#45;&gt;Timeline of the Presidency of Barack Obama (2011) -->
<g id="edge48" class="edge"><title>Timeline of the Presidency of Barack Obama&#45;&gt;Timeline of the Presidency of Barack Obama (2011)</title>
<path fill="none" stroke="black" d="M233.378,-1346.19C309.853,-1368.14 442.776,-1406.29 523.985,-1429.6"/>
<polygon fill="black" stroke="black" points="523.047,-1432.98 533.625,-1432.37 524.979,-1426.25 523.047,-1432.98"/>
</g>
<!-- Timeline of the Presidency of Barack Obama&#45;&gt;Timeline of the Presidency of Barack Obama (2009) -->
<g id="edge49" class="edge"><title>Timeline of the Presidency of Barack Obama&#45;&gt;Timeline of the Presidency of Barack Obama (2009)</title>
<path fill="none" stroke="black" d="M234.415,-1312.23C335.586,-1283.67 546.016,-1224.01 723.557,-1171.92 744.073,-1165.9 749.379,-1164.94 769.628,-1158.08 790.294,-1151.07 812.771,-1142.74 832.414,-1135.22"/>
<polygon fill="black" stroke="black" points="833.735,-1138.46 841.809,-1131.6 831.219,-1131.93 833.735,-1138.46"/>
</g>
<!-- Barack Obama in comics -->
<g id="node10" class="node"><title>Barack Obama in comics</title>
<ellipse fill="none" stroke="black" cx="1775.23" cy="-1492.03" rx="102.882" ry="18"/>
<text text-anchor="middle" x="1775.23" y="-1488.33" font-family="Times New Roman,serif" font-size="14.00">Barack Obama in comics</text>
</g>
<!-- Barack Obama in comics&#45;&gt;Barack Obama -->
<g id="edge11" class="edge"><title>Barack Obama in comics&#45;&gt;Barack Obama</title>
<path fill="none" stroke="black" d="M1759.46,-1474.02C1672.22,-1374.42 1248.99,-891.22 1146.51,-774.218"/>
<polygon fill="black" stroke="black" points="1148.92,-771.653 1139.7,-766.437 1143.65,-776.266 1148.92,-771.653"/>
</g>
<!-- Family of Barack Obama&#45;&gt;Public image of Barack Obama -->
<g id="edge12" class="edge"><title>Family of Barack Obama&#45;&gt;Public image of Barack Obama</title>
<path fill="none" stroke="black" d="M865.744,-642.57C849.86,-573.761 792.92,-327.109 773.587,-243.357"/>
<polygon fill="black" stroke="black" points="776.978,-242.488 771.318,-233.532 770.157,-244.063 776.978,-242.488"/>
</g>
<!-- Family of Barack Obama&#45;&gt;Inauguration of Barack Obama -->
<g id="edge13" class="edge"><title>Family of Barack Obama&#45;&gt;Inauguration of Barack Obama</title>
<path fill="none" stroke="black" d="M814.653,-675.825C722.664,-701.212 538.405,-752.064 438.898,-779.525"/>
<polygon fill="black" stroke="black" points="437.955,-776.155 429.246,-782.189 439.817,-782.903 437.955,-776.155"/>
</g>
<!-- Family of Barack Obama&#45;&gt;Presidency of Barack Obama -->
<g id="edge14" class="edge"><title>Family of Barack Obama&#45;&gt;Presidency of Barack Obama</title>
<path fill="none" stroke="black" d="M841.486,-678.211C795.19,-712.301 704.589,-786.818 662.001,-825.825"/>
<polygon fill="black" stroke="black" points="659.571,-823.305 654.63,-832.677 664.337,-828.432 659.571,-823.305"/>
</g>
<!-- Family of Barack Obama&#45;&gt;Barack Obama -->
<g id="edge15" class="edge"><title>Family of Barack Obama&#45;&gt;Barack Obama</title>
<path fill="none" stroke="black" d="M904.192,-677.616C945.189,-694.104 1014.48,-718.43 1064.35,-734.057"/>
<polygon fill="black" stroke="black" points="1063.46,-737.446 1074.05,-737.062 1065.54,-730.76 1063.46,-737.446"/>
</g>
<!-- Family of Barack Obama&#45;&gt;Barack Obama, Sr. -->
<g id="edge16" class="edge"><title>Family of Barack Obama&#45;&gt;Barack Obama, Sr.</title>
<path fill="none" stroke="black" d="M964.675,-653.783C1068.82,-642.524 1233.64,-621.206 1326.55,-606.829"/>
<polygon fill="black" stroke="black" points="1327.35,-610.246 1336.69,-605.242 1326.27,-603.33 1327.35,-610.246"/>
</g>
<!-- Family of Barack Obama&#45;&gt;Early life and career of Barack Obama -->
<g id="edge17" class="edge"><title>Family of Barack Obama&#45;&gt;Early life and career of Barack Obama</title>
<path fill="none" stroke="black" d="M892.868,-642.952C956.391,-587.135 1133.28,-414.765 1194.46,-349.198"/>
<polygon fill="black" stroke="black" points="1197.13,-351.47 1201.33,-341.746 1191.98,-346.725 1197.13,-351.47"/>
</g>
<!-- Family of Barack Obama&#45;&gt;Timeline of the Presidency of Barack Obama (2009) -->
<g id="edge18" class="edge"><title>Family of Barack Obama&#45;&gt;Timeline of the Presidency of Barack Obama (2009)</title>
<path fill="none" stroke="black" d="M867.692,-678.734C865.203,-748.66 873.974,-1000.85 881.559,-1085.84"/>
<polygon fill="black" stroke="black" points="878.098,-1086.4 882.549,-1096.02 885.065,-1085.73 878.098,-1086.4"/>
</g>
<!-- Family of Barack Obama&#45;&gt;Barack Obama presidential campaign, 2008 -->
<g id="edge19" class="edge"><title>Family of Barack Obama&#45;&gt;Barack Obama presidential campaign, 2008</title>
<path fill="none" stroke="black" d="M842.772,-643.214C793.995,-611.996 691.459,-546.372 636.497,-511.195"/>
<polygon fill="black" stroke="black" points="638.087,-508.057 627.778,-505.615 634.314,-513.953 638.087,-508.057"/>
</g>
<!-- Family of Barack Obama&#45;&gt;Presidential transition of Barack Obama -->
<g id="edge20" class="edge"><title>Family of Barack Obama&#45;&gt;Presidential transition of Barack Obama</title>
<path fill="none" stroke="black" d="M860.618,-678.576C821.96,-753.53 673.611,-1041.17 627.262,-1131.03"/>
<polygon fill="black" stroke="black" points="624.085,-1129.56 622.612,-1140.05 630.307,-1132.77 624.085,-1129.56"/>
</g>
<!-- Public image of Barack Obama&#45;&gt;Barack Obama -->
<g id="edge50" class="edge"><title>Public image of Barack Obama&#45;&gt;Barack Obama</title>
<path fill="none" stroke="black" d="M776.069,-233.265C822.572,-312.395 1034.6,-629.554 1102.95,-722.796"/>
<polygon fill="black" stroke="black" points="1100.34,-725.153 1109.11,-731.105 1105.97,-720.987 1100.34,-725.153"/>
</g>
<!-- Barack Obama – Der schwarze Kennedy -->
<g id="node17" class="node"><title>Barack Obama – Der schwarze Kennedy</title>
<ellipse fill="none" stroke="black" cx="263.68" cy="-280.019" rx="158.672" ry="18"/>
<text text-anchor="middle" x="263.68" y="-276.319" font-family="Times New Roman,serif" font-size="14.00">Barack Obama – Der schwarze Kennedy</text>
</g>
<!-- Public image of Barack Obama&#45;&gt;Barack Obama – Der schwarze Kennedy -->
<g id="edge51" class="edge"><title>Public image of Barack Obama&#45;&gt;Barack Obama – Der schwarze Kennedy</title>
<path fill="none" stroke="black" d="M674.186,-227.247C590.802,-237.966 468.123,-253.737 378.6,-265.246"/>
<polygon fill="black" stroke="black" points="378.147,-261.775 368.675,-266.521 379.04,-268.718 378.147,-261.775"/>
</g>
<!-- Public image of Barack Obama&#45;&gt;Early life and career of Barack Obama -->
<g id="edge52" class="edge"><title>Public image of Barack Obama&#45;&gt;Early life and career of Barack Obama</title>
<path fill="none" stroke="black" d="M831.355,-230.82C912.5,-250.421 1051.98,-284.113 1138.68,-305.056"/>
<polygon fill="black" stroke="black" points="1137.92,-308.473 1148.46,-307.419 1139.56,-301.668 1137.92,-308.473"/>
</g>
<!-- Barack Obama, Sr.&#45;&gt;Family of Barack Obama -->
<g id="edge74" class="edge"><title>Barack Obama, Sr.&#45;&gt;Family of Barack Obama</title>
<path fill="none" stroke="black" d="M1318.51,-598.068C1218.96,-608.414 1047.44,-630.398 947.807,-645.57"/>
<polygon fill="black" stroke="black" points="947.154,-642.129 937.802,-647.108 948.217,-649.048 947.154,-642.129"/>
</g>
<!-- Barack Obama, Sr.&#45;&gt;Barack Obama -->
<g id="edge75" class="edge"><title>Barack Obama, Sr.&#45;&gt;Barack Obama</title>
<path fill="none" stroke="black" d="M1358.6,-609.169C1304.05,-637.176 1204.18,-694.34 1154.22,-726.213"/>
<polygon fill="black" stroke="black" points="1152.28,-723.301 1145.78,-731.669 1156.08,-729.179 1152.28,-723.301"/>
</g>
<!-- Early life and career of Barack Obama&#45;&gt;Barack Obama -->
<g id="edge66" class="edge"><title>Early life and career of Barack Obama&#45;&gt;Barack Obama</title>
<path fill="none" stroke="black" d="M1208.54,-341.8C1189.28,-408.441 1139.41,-639.561 1126.58,-720.45"/>
<polygon fill="black" stroke="black" points="1123.11,-719.999 1125.08,-730.409 1130.03,-721.04 1123.11,-719.999"/>
</g>
<!-- Early life and career of Barack Obama&#45;&gt;Barack Obama, Sr. -->
<g id="edge67" class="edge"><title>Early life and career of Barack Obama&#45;&gt;Barack Obama, Sr.</title>
<path fill="none" stroke="black" d="M1227.65,-341.715C1258.84,-388.216 1341.88,-512.04 1378.48,-566.617"/>
<polygon fill="black" stroke="black" points="1375.67,-568.708 1384.15,-575.063 1381.48,-564.809 1375.67,-568.708"/>
</g>
<!-- Early life and career of Barack Obama&#45;&gt;Family of Barack Obama -->
<g id="edge68" class="edge"><title>Early life and career of Barack Obama&#45;&gt;Family of Barack Obama</title>
<path fill="none" stroke="black" d="M1192.28,-341.479C1128.51,-397.56 951.949,-569.612 890.905,-635.048"/>
<polygon fill="black" stroke="black" points="888.254,-632.76 884.049,-642.484 893.4,-637.505 888.254,-632.76"/>
</g>
<!-- Chief Technology Officer of the United States&#45;&gt;Barack Obama -->
<g id="edge31" class="edge"><title>Chief Technology Officer of the United States&#45;&gt;Barack Obama</title>
<path fill="none" stroke="black" d="M1111.85,-1601.14C1113.44,-1490.93 1121.77,-912.651 1123.72,-777.113"/>
<polygon fill="black" stroke="black" points="1127.23,-776.801 1123.87,-766.752 1120.23,-776.7 1127.23,-776.801"/>
</g>
<!-- Barack Obama religion conspiracy theories&#45;&gt;Barack Obama presidential campaign, 2008 -->
<g id="edge69" class="edge"><title>Barack Obama religion conspiracy theories&#45;&gt;Barack Obama presidential campaign, 2008</title>
<path fill="none" stroke="black" d="M1142.69,-35.9068C1046.98,-108.398 718.699,-379.274 624.982,-463.005"/>
<polygon fill="black" stroke="black" points="622.483,-460.545 617.397,-469.84 627.169,-465.746 622.483,-460.545"/>
</g>
<!-- Barack Obama religion conspiracy theories&#45;&gt;Barack Obama, Sr. -->
<g id="edge70" class="edge"><title>Barack Obama religion conspiracy theories&#45;&gt;Barack Obama, Sr.</title>
<path fill="none" stroke="black" d="M1185.11,-36.0134C1224.08,-80.8443 1323.51,-202.571 1366.6,-323.749 1396.4,-407.574 1398.34,-514.54 1397.32,-564.706"/>
<polygon fill="black" stroke="black" points="1393.82,-564.713 1397.06,-574.8 1400.82,-564.895 1393.82,-564.713"/>
</g>
<!-- Barack Obama religion conspiracy theories&#45;&gt;Barack Obama -->
<g id="edge71" class="edge"><title>Barack Obama religion conspiracy theories&#45;&gt;Barack Obama</title>
<path fill="none" stroke="black" d="M1159.35,-36.2594C1135.56,-82.6311 1075.33,-209.364 1064.43,-323.484 1050.07,-473.863 1095.86,-652.607 1115.57,-720.567"/>
<polygon fill="black" stroke="black" points="1112.31,-721.897 1118.49,-730.501 1119.02,-719.92 1112.31,-721.897"/>
</g>
<!-- Barack Obama – Der schwarze Kennedy&#45;&gt;Barack Obama presidential campaign, 2008 -->
<g id="edge53" class="edge"><title>Barack Obama – Der schwarze Kennedy&#45;&gt;Barack Obama presidential campaign, 2008</title>
<path fill="none" stroke="black" d="M292.343,-297.73C352.976,-335.195 494.219,-422.47 562.106,-464.418"/>
<polygon fill="black" stroke="black" points="560.446,-467.507 570.793,-469.786 564.125,-461.552 560.446,-467.507"/>
</g>
<!-- Barack Obama – Der schwarze Kennedy&#45;&gt;Barack Obama -->
<g id="edge54" class="edge"><title>Barack Obama – Der schwarze Kennedy&#45;&gt;Barack Obama</title>
<path fill="none" stroke="black" d="M316.926,-297.088C411.274,-328.369 612.604,-399.82 769.145,-487.769 899.751,-561.147 1038.31,-674.968 1096.19,-724.39"/>
<polygon fill="black" stroke="black" points="1094.27,-727.35 1104.14,-731.203 1098.82,-722.036 1094.27,-727.35"/>
</g>
<!-- Campaign rhetoric of Barack Obama -->
<g id="node18" class="node"><title>Campaign rhetoric of Barack Obama</title>
<ellipse fill="none" stroke="black" cx="2050.8" cy="-1073.63" rx="144.075" ry="18"/>
<text text-anchor="middle" x="2050.8" y="-1069.93" font-family="Times New Roman,serif" font-size="14.00">Campaign rhetoric of Barack Obama</text>
</g>
<!-- Campaign rhetoric of Barack Obama&#45;&gt;Barack Obama -->
<g id="edge55" class="edge"><title>Campaign rhetoric of Barack Obama&#45;&gt;Barack Obama</title>
<path fill="none" stroke="black" d="M2002.28,-1056.61C1842.88,-1000.72 1336.25,-823.052 1174.37,-766.285"/>
<polygon fill="black" stroke="black" points="1175.26,-762.887 1164.66,-762.881 1172.94,-769.493 1175.26,-762.887"/>
</g>
<!-- History of Sweden (1991–present) -->
<g id="node19" class="node"><title>History of Sweden (1991–present)</title>
<ellipse fill="none" stroke="black" cx="2110.81" cy="-560.371" rx="135.676" ry="18"/>
<text text-anchor="middle" x="2110.81" y="-556.671" font-family="Times New Roman,serif" font-size="14.00">History of Sweden (1991–present)</text>
</g>
<!-- History of Sweden (1991–present)&#45;&gt;Barack Obama -->
<g id="edge56" class="edge"><title>History of Sweden (1991–present)&#45;&gt;Barack Obama</title>
<path fill="none" stroke="black" d="M2032.98,-575.225C1843.58,-611.369 1361.53,-703.363 1187.78,-736.521"/>
<polygon fill="black" stroke="black" points="1186.93,-733.119 1177.77,-738.432 1188.25,-739.995 1186.93,-733.119"/>
</g>
<!-- Hope! – Das Obama Musical -->
<g id="node20" class="node"><title>Hope! – Das Obama Musical</title>
<ellipse fill="none" stroke="black" cx="1721.27" cy="-68.6198" rx="116.979" ry="18"/>
<text text-anchor="middle" x="1721.27" y="-64.9198" font-family="Times New Roman,serif" font-size="14.00">Hope! – Das Obama Musical</text>
</g>
<!-- Hope! – Das Obama Musical&#45;&gt;Early life and career of Barack Obama -->
<g id="edge72" class="edge"><title>Hope! – Das Obama Musical&#45;&gt;Early life and career of Barack Obama</title>
<path fill="none" stroke="black" d="M1686.9,-85.9463C1597.63,-130.958 1358.44,-251.553 1259.4,-301.49"/>
<polygon fill="black" stroke="black" points="1257.61,-298.47 1250.26,-306.097 1260.76,-304.721 1257.61,-298.47"/>
</g>
<!-- Hope! – Das Obama Musical&#45;&gt;Barack Obama -->
<g id="edge73" class="edge"><title>Hope! – Das Obama Musical&#45;&gt;Barack Obama</title>
<path fill="none" stroke="black" d="M1705.6,-86.4598C1623.47,-179.995 1242.66,-613.684 1146.32,-723.396"/>
<polygon fill="black" stroke="black" points="1143.6,-721.19 1139.63,-731.014 1148.86,-725.809 1143.6,-721.19"/>
</g>
</g>
</svg>
